External Loads File
version=1
nRows=54
nColumns=13
Range=5.000000e-03-10 seconds
endheader
time 	forceRightX 	forceRightY 	forceRightZ 	pointRightX 	pointRightY 	pointRightZ 	forceLeftX 	forceLeftY 	forceLeftZ 	pointLeftX 	pointLeftY 	pointLeftZ 		
2.505000 -163.738994 542.871511 -0.000000 0.311312 0.485727 -0.146783 111.184790 -58.353439 -0.000000 0.195578 0.174012 -0.376635
2.510000 -200.572039 575.437882 -0.000000 0.316665 0.481165 -0.146633 112.166452 -60.778673 -0.000000 0.188486 0.177800 -0.376292
2.515000 -241.956750 601.660853 -0.000000 0.322060 0.476308 -0.146584 113.485068 -60.343768 -0.000000 0.181444 0.181949 -0.375951
2.520000 -286.331096 620.673540 -0.000000 0.327693 0.471201 -0.146836 114.810168 -58.281537 -0.000000 0.174427 0.186492 -0.375650
2.525000 -332.433467 631.929648 -0.000000 0.333195 0.465694 -0.147025 115.957744 -55.463940 -0.000000 0.167664 0.191433 -0.375277
2.530000 -380.957516 634.182623 -0.000000 0.338662 0.459814 -0.147240 116.990982 -52.155372 -0.000000 0.161060 0.196781 -0.375004
2.535000 -428.773129 628.686937 -0.000000 0.343917 0.453673 -0.147393 117.705894 -49.122015 -0.000000 0.154800 0.202268 -0.374633
2.540000 -476.015039 615.337118 -0.000000 0.349160 0.447327 -0.147787 118.220392 -46.391176 -0.000000 0.148759 0.208139 -0.374247
2.545000 -521.526635 595.238475 -0.000000 0.354283 0.440614 -0.147628 118.553944 -44.177706 -0.000000 0.143004 0.214274 -0.373922
2.550000 -566.530942 567.673565 -0.000000 0.359228 0.433671 -0.147568 118.896112 -42.193318 -0.000000 0.137590 0.220703 -0.373800
2.555000 -608.267714 535.703550 -0.000000 0.364072 0.426473 -0.147546 119.136838 -40.904737 -0.000000 0.132559 0.227810 -0.373604
2.560000 -646.306219 500.813537 -0.000000 0.368729 0.418994 -0.147460 119.321745 -40.320846 -0.000000 0.127674 0.234795 -0.373626
2.565000 -681.890100 462.383632 -0.000000 0.372832 0.411330 -0.146848 119.603509 -40.064176 -0.000000 0.123239 0.241973 -0.373266
2.570000 -715.048752 420.972704 -0.000000 0.377121 0.403406 -0.147036 120.023949 -40.016023 -0.000000 0.119367 0.249432 -0.373661
2.575000 -744.963788 378.712945 -0.000000 0.380968 0.395450 -0.146834 120.512207 -40.336000 -0.000000 0.115779 0.257120 -0.373717
2.580000 -771.684604 336.642239 -0.000000 0.384228 0.387184 -0.146062 121.029206 -41.016134 -0.000000 0.112619 0.265021 -0.373707
2.585000 -795.535584 295.050483 -0.000000 0.387574 0.378767 -0.145811 121.540292 -41.941377 -0.000000 0.109943 0.273194 -0.373756
2.590000 -817.108422 252.777450 -0.000000 0.390566 0.370153 -0.145654 122.048390 -42.777497 -0.000000 0.107608 0.281517 -0.373757
2.595000 -835.715115 211.917314 -0.000000 0.393292 0.361497 -0.145607 122.335931 -43.673787 -0.000000 0.105765 0.290056 -0.373779
2.600000 -852.063021 169.394569 -0.000000 0.395693 0.352663 -0.145555 122.403167 -43.967694 -0.000000 0.104350 0.298761 -0.373745
2.605000 -865.109121 129.432215 -0.000000 0.397741 0.343923 -0.145542 121.818157 -43.992590 -0.000000 0.103381 0.307450 -0.373796
2.610000 -875.394897 89.369682 -0.000000 0.399383 0.335040 -0.145494 120.454481 -43.026347 -0.000000 0.102953 0.316236 -0.373904
2.615000 -882.882945 49.421717 -0.000000 0.400596 0.326162 -0.145318 118.001235 -40.703988 -0.000000 0.102901 0.325148 -0.373835
2.620000 -887.703829 9.141319 -0.000000 0.401970 0.317270 -0.145747 114.165838 -36.555009 -0.000000 0.103347 0.334015 -0.373826
2.625000 -890.112627 -29.160279 -0.000000 0.402265 0.308342 -0.145451 108.577132 -30.539652 -0.000000 0.104198 0.342908 -0.373819
2.630000 -890.391375 -68.930809 -0.000000 0.402514 0.299554 -0.145026 101.202850 -22.052949 -0.000000 0.105721 0.352085 -0.373990
2.635000 -888.798058 -108.817419 -0.000000 0.401953 0.290725 -0.145042 92.044556 -11.391449 -0.000000 0.107591 0.360807 -0.374049
2.640000 -885.570101 -148.810149 -0.000000 0.401134 0.282014 -0.145149 81.526353 0.822621 -0.000000 0.109738 0.369791 -0.374149
2.645000 -86.494622 896.773488 -0.000000 0.399917 0.273401 -0.145145 5.212657 -71.582887 -0.000000 0.112432 0.378155 -0.374275
2.650000 -127.396251 895.461317 -0.000000 0.398082 0.264934 -0.145034 17.876941 -62.519968 -0.000000 0.115544 0.386680 -0.374322
2.655000 -71.772061 905.903719 -0.000000 0.395839 0.256502 -0.145182 22.253157 -57.299905 -0.000000 0.119070 0.395105 -0.374517
2.660000 -113.043948 906.680552 -0.000000 0.393293 0.248297 -0.145093 30.569312 -51.679247 -0.000000 0.122897 0.403481 -0.374783
2.665000 -75.036836 916.056803 -0.000000 0.390269 0.240233 -0.145042 31.893652 -50.236201 -0.000000 0.127416 0.411644 -0.374720
2.670000 -114.967180 917.451236 -0.000000 0.386919 0.232360 -0.144878 35.362099 -47.323658 -0.000000 0.131860 0.419760 -0.375359
2.675000 -153.772915 916.927628 -0.000000 0.383100 0.224690 -0.144764 36.975693 -45.315679 -0.000000 0.137039 0.427489 -0.374873
2.680000 -191.955889 914.013870 -0.000000 0.378984 0.217280 -0.144912 37.338382 -44.093318 -0.000000 0.141985 0.435052 -0.374931
2.685000 -228.536408 908.509513 -0.000000 0.374530 0.210194 -0.144648 36.871553 -43.619350 -0.000000 0.147348 0.442410 -0.374362
2.690000 -265.232364 899.559092 -0.000000 0.369640 0.203320 -0.144500 36.020404 -43.813985 -0.000000 0.154403 0.449835 -0.374503
2.695000 -298.823834 887.643400 -0.000000 0.364450 0.196918 -0.144409 34.905370 -44.883515 -0.000000 0.160500 0.456639 -0.374593
2.700000 -329.545901 872.464614 -0.000000 0.358950 0.190869 -0.144343 33.709720 -46.959084 -0.000000 0.166864 0.463522 -0.374660
2.705000 -358.905792 853.188712 -0.000000 0.353184 0.185280 -0.144356 32.611980 -50.169469 -0.000000 0.173542 0.469422 -0.375020
2.710000 -385.357678 830.208737 -0.000000 0.347129 0.179860 -0.144297 31.579244 -54.757649 -0.000000 0.180020 0.475036 -0.375085
2.715000 -407.125334 804.314812 -0.000000 0.340810 0.174960 -0.144263 30.459816 -60.857218 -0.000000 0.186633 0.480476 -0.375444
2.720000 -425.841609 774.637209 -0.000000 0.334239 0.170499 -0.144233 29.277352 -68.236984 -0.000000 0.194289 0.485349 -0.375664
2.725000 -437.368697 743.287999 -0.000000 0.327567 0.166401 -0.144213 27.565330 -76.535764 -0.000000 0.201392 0.489915 -0.375774
2.730000 70.287769 833.468827 -0.000000 0.320625 0.162676 -0.144032 -30.538723 -83.019790 -0.000000 0.208915 0.494155 -0.375847
2.735000 47.280682 804.158714 -0.000000 0.313440 0.159532 -0.143663 -36.993899 -86.891172 -0.000000 0.216498 0.497938 -0.375838
2.740000 106.368537 761.965333 -0.000000 0.306032 0.156820 -0.143170 -51.697671 -83.589953 -0.000000 0.224142 0.500936 -0.375893
2.745000 160.890619 709.518967 -0.000000 0.298712 0.154617 -0.143155 -64.838725 -75.347490 -0.000000 0.231880 0.503776 -0.375946
2.750000 140.125615 665.406772 -0.000000 0.291375 0.152832 -0.143096 -68.356177 -69.777493 -0.000000 0.239756 0.506178 -0.376214
2.755000 122.810484 614.845308 -0.000000 0.283966 0.151764 -0.143096 -70.867255 -60.994310 -0.000000 0.247478 0.507891 -0.376190
2.760000 167.702197 543.785025 -0.000000 0.276519 0.151228 -0.143040 -77.522888 -41.223136 -0.000000 0.255258 0.508920 -0.376397
2.765000 200.604063 465.733238 -0.000000 0.269061 0.151148 -0.143070 -79.967729 -18.572344 -0.000000 0.263032 0.509577 -0.376882
2.770000 180.277000 403.993883 -0.000000 0.261590 0.151655 -0.143143 -78.407938 -2.198996 -0.000000 0.270348 0.509518 -0.377161
